<svg width="32" height="32" viewBox="0 0 32 32" fill="none" xmlns="http://www.w3.org/2000/svg">
<path opacity="0.4" d="M29.3196 8.02657C29.3463 8.34657 29.3196 8.67989 29.2396 9.01322L24.7463 27.0532C24.4263 28.3998 23.2263 29.3332 21.8397 29.3332H4.31963C2.3063 29.3332 0.879654 27.3599 1.46632 25.4266L7.07964 7.38652C7.46631 6.13318 8.62633 5.27991 9.93299 5.27991H26.333C27.613 5.27991 28.653 6.0399 29.093 7.10657C29.2263 7.38657 29.293 7.70657 29.3196 8.02657Z" fill="#18A0FB"/>
<path d="M30.6533 26.16C30.7867 27.88 29.4267 29.3333 27.7067 29.3333H21.84C23.2267 29.3333 24.4267 28.4 24.7467 27.0533L29.24 9.01335C29.32 8.68001 29.3467 8.34669 29.32 8.02669L29.3334 8L30.6533 26.16Z" fill="#18A0FB"/>
<path d="M12.9066 9.50664C12.8266 9.50664 12.7466 9.49328 12.6666 9.47995C12.1333 9.34661 11.8 8.81332 11.9333 8.26665L13.32 2.50664C13.4533 1.97331 13.9866 1.65332 14.5333 1.77332C15.0666 1.90666 15.4 2.43995 15.2667 2.98662L13.88 8.74663C13.7733 9.19996 13.36 9.50664 12.9066 9.50664Z" fill="#18A0FB"/>
<path d="M21.84 9.51998C21.7733 9.51998 21.6933 9.51995 21.6266 9.49329C21.0933 9.37329 20.7467 8.83993 20.8533 8.3066L22.1066 2.51998C22.2266 1.97331 22.76 1.63996 23.2933 1.74662C23.8266 1.86662 24.1733 2.39998 24.0666 2.93331L22.8133 8.71993C22.72 9.19993 22.3066 9.51998 21.84 9.51998Z" fill="#18A0FB"/>
<path d="M20.9333 17H10.2667C9.72 17 9.26666 16.5467 9.26666 16C9.26666 15.4533 9.72 15 10.2667 15H20.9333C21.48 15 21.9333 15.4533 21.9333 16C21.9333 16.5467 21.48 17 20.9333 17Z" fill="#18A0FB"/>
<path d="M19.6 22.3334H8.93335C8.38668 22.3334 7.93335 21.88 7.93335 21.3334C7.93335 20.7867 8.38668 20.3334 8.93335 20.3334H19.6C20.1467 20.3334 20.6 20.7867 20.6 21.3334C20.6 21.88 20.1467 22.3334 19.6 22.3334Z" fill="#18A0FB"/>
</svg>
