<svg width="20" height="20" viewBox="0 0 20 20" fill="none" xmlns="http://www.w3.org/2000/svg">
<path d="M19.5999 10.2222C19.5999 9.39994 19.5331 8.79995 19.3887 8.17773H9.99988V11.8888H15.5109C15.3999 12.811 14.7999 14.1999 13.4665 15.1332L13.4478 15.2575L16.4164 17.5572L16.6221 17.5777C18.5109 15.8332 19.5999 13.2666 19.5999 10.2222Z" fill="#4285F4"/>
<path d="M10 20C12.7 20 14.9666 19.1111 16.6222 17.5778L13.4667 15.1333C12.6222 15.7222 11.4889 16.1333 10 16.1333C7.35558 16.1333 5.11116 14.3889 4.31108 11.9778L4.19381 11.9877L1.10702 14.3766L1.06665 14.4889C2.71108 17.7555 6.08887 20 10 20Z" fill="#34A853"/>
<path d="M4.31106 11.9777C4.09995 11.3555 3.97778 10.6888 3.97778 9.99996C3.97778 9.31103 4.09995 8.64439 4.29995 8.02218L4.29436 7.88967L1.1689 5.4624L1.06664 5.51104C0.388892 6.86661 0 8.38886 0 9.99996C0 11.6111 0.388892 13.1332 1.06664 14.4888L4.31106 11.9777Z" fill="#FBBC05"/>
<path d="M9.99999 3.86662C11.8777 3.86662 13.1444 4.67773 13.8666 5.35555L16.6888 2.59999C14.9555 0.988889 12.6999 0 9.99999 0C6.08885 0 2.71107 2.24442 1.06665 5.51105L4.29996 8.02218C5.11114 5.61108 7.35557 3.86662 9.99999 3.86662Z" fill="#EB4335"/>
</svg>
