<svg width="18" height="18" viewBox="0 0 18 18" fill="none" xmlns="http://www.w3.org/2000/svg">
<path d="M15.2498 2.33329H12.7498V1.08329C12.7498 0.972786 12.7059 0.866805 12.6278 0.788665C12.5497 0.710525 12.4437 0.666626 12.3332 0.666626C12.2227 0.666626 12.1167 0.710525 12.0385 0.788665C11.9604 0.866805 11.9165 0.972786 11.9165 1.08329V2.33329H6.08317V1.08329C6.08317 0.972786 6.03927 0.866805 5.96113 0.788665C5.88299 0.710525 5.77701 0.666626 5.6665 0.666626C5.556 0.666626 5.45002 0.710525 5.37188 0.788665C5.29374 0.866805 5.24984 0.972786 5.24984 1.08329V2.33329H2.74984C2.19751 2.33395 1.66799 2.55366 1.27743 2.94422C0.886871 3.33477 0.667166 3.86429 0.666504 4.41663V15.25C0.667166 15.8023 0.886871 16.3318 1.27743 16.7224C1.66799 17.1129 2.19751 17.3326 2.74984 17.3333H15.2498C15.8024 17.3333 16.3323 17.1138 16.723 16.7231C17.1137 16.3324 17.3332 15.8025 17.3332 15.25V4.41663C17.3332 3.86409 17.1137 3.33419 16.723 2.94349C16.3323 2.55279 15.8024 2.33329 15.2498 2.33329ZM16.4998 15.25C16.4998 15.5815 16.3681 15.8994 16.1337 16.1338C15.8993 16.3683 15.5814 16.5 15.2498 16.5H2.74984C2.41832 16.5 2.10037 16.3683 1.86595 16.1338C1.63153 15.8994 1.49984 15.5815 1.49984 15.25V8.16663H16.4998V15.25ZM16.4998 7.33329H1.49984V4.41663C1.49984 3.72663 2.05817 3.16663 2.74984 3.16663H5.24984V4.41663C5.24984 4.52713 5.29374 4.63311 5.37188 4.71125C5.45002 4.78939 5.556 4.83329 5.6665 4.83329C5.77701 4.83329 5.88299 4.78939 5.96113 4.71125C6.03927 4.63311 6.08317 4.52713 6.08317 4.41663V3.16663H11.9165V4.41663C11.9165 4.52713 11.9604 4.63311 12.0385 4.71125C12.1167 4.78939 12.2227 4.83329 12.3332 4.83329C12.4437 4.83329 12.5497 4.78939 12.6278 4.71125C12.7059 4.63311 12.7498 4.52713 12.7498 4.41663V3.16663H15.2498C15.5814 3.16663 15.8993 3.29832 16.1337 3.53274C16.3681 3.76716 16.4998 4.08511 16.4998 4.41663V7.33329Z" fill="#18A0FB"/>
</svg>
