<svg width="12" height="16" viewBox="0 0 12 16" fill="none" xmlns="http://www.w3.org/2000/svg">
<path d="M6.28285 2.79631L6 2.47138L5.71715 2.79631C5.65804 2.86422 5.59943 2.9308 5.54017 2.9981C5.15913 3.4309 4.75154 3.89386 4.01399 4.93513L4.01384 4.93534C3.39803 5.80603 2.80676 6.79644 2.36776 7.71709C1.93674 8.621 1.625 9.51322 1.625 10.1677C1.625 12.5427 3.58298 14.4309 6 14.4309C8.41702 14.4309 10.375 12.5427 10.375 10.1677C10.375 9.51322 10.0633 8.621 9.63224 7.71709C9.19324 6.79644 8.60197 5.80603 7.98616 4.93534L7.98601 4.93513C7.24846 3.89386 6.84087 3.4309 6.45983 2.9981C6.40057 2.93079 6.34196 2.86422 6.28285 2.79631ZM5.52763 1.06861L6 0.55435L6.47237 1.06861L6.47238 1.06862L6.47248 1.06873L6.47304 1.06935L6.47553 1.0721L6.48592 1.08363L6.52753 1.13012C6.56422 1.1713 6.61839 1.23251 6.68755 1.3118C6.82589 1.47041 7.02413 1.70128 7.2625 1.98896C7.73955 2.5647 8.37574 3.36606 9.01364 4.26972C9.65627 5.1801 10.312 6.16382 10.807 7.17359C11.3029 8.18498 11.625 9.19768 11.625 10.1677C11.625 11.6116 11.035 12.9985 9.98126 14.0229C8.92713 15.0475 7.49522 15.625 6 15.625C4.50478 15.625 3.07287 15.0475 2.01874 14.0229C0.964973 12.9985 0.375 11.6116 0.375 10.1677C0.375 9.19768 0.697092 8.18498 1.19296 7.17359C1.68803 6.16382 2.34373 5.1801 2.98636 4.26972C3.62426 3.36606 4.26045 2.5647 4.7375 1.98896C4.97587 1.70128 5.17411 1.47041 5.31245 1.3118C5.38161 1.23251 5.43578 1.1713 5.47247 1.13012L5.51408 1.08363L5.52447 1.0721L5.52696 1.06935L5.52752 1.06873L5.52762 1.06862L5.52763 1.06861Z" stroke="#18A0FB" stroke-width="0.75"/>
</svg>
