<svg width="24" height="25" viewBox="0 0 24 25" fill="none" xmlns="http://www.w3.org/2000/svg">
<path d="M11.4 21.6667H12.6C14.8402 21.6667 15.9603 21.6667 16.816 21.2308C17.5686 20.8473 18.1805 20.2354 18.564 19.4827C19 18.6271 19 17.507 19 15.2667V14.6667V10.3177C19 9.33935 19 8.85017 18.8895 8.38982C18.7915 7.98168 18.6299 7.5915 18.4106 7.23361C18.1632 6.82994 17.8173 6.48404 17.1255 5.79224L17.1255 5.79223L16.8745 5.54127L16.8745 5.54126C16.1827 4.84946 15.8368 4.50355 15.4331 4.25619C15.0753 4.03687 14.6851 3.87526 14.2769 3.77727C13.8166 3.66675 13.3274 3.66675 12.349 3.66675H11.4C9.15979 3.66675 8.03969 3.66675 7.18404 4.10272C6.43139 4.48622 5.81947 5.09814 5.43597 5.85079C5 6.70643 5 7.82654 5 10.0667V15.2667C5 17.507 5 18.6271 5.43597 19.4827C5.81947 20.2354 6.43139 20.8473 7.18404 21.2308C8.03969 21.6667 9.15979 21.6667 11.4 21.6667Z" stroke="#484C52" stroke-width="2" stroke-linecap="round" stroke-linejoin="round"/>
<path d="M9 12.6667L15 12.6667" stroke="#484C52" stroke-width="2" stroke-linecap="round" stroke-linejoin="round"/>
<path d="M9 16.6667L12 16.6667" stroke="#484C52" stroke-width="2" stroke-linecap="round" stroke-linejoin="round"/>
<path d="M18 8.66675H17.2C16.0799 8.66675 15.5198 8.66675 15.092 8.44876C14.7157 8.25701 14.4097 7.95105 14.218 7.57473C14 7.14691 14 6.58685 14 5.46675V4.66675" stroke="#484C52" stroke-width="2" stroke-linecap="round" stroke-linejoin="round"/>
</svg>
