<svg width="16" height="16" viewBox="0 0 16 16" fill="none" xmlns="http://www.w3.org/2000/svg">
<path d="M6 7.33337V8.66671H4.66667V7.33337H6ZM8.66667 7.33337V8.66671H7.33333V7.33337H8.66667ZM11.3333 7.33337V8.66671H10V7.33337H11.3333ZM12.6667 2.66671C13.0203 2.66671 13.3594 2.80718 13.6095 3.05723C13.8595 3.30728 14 3.64642 14 4.00004V13.3334C14 13.687 13.8595 14.0261 13.6095 14.2762C13.3594 14.5262 13.0203 14.6667 12.6667 14.6667H3.33333C2.59333 14.6667 2 14.0667 2 13.3334V4.00004C2 3.64642 2.14048 3.30728 2.39052 3.05723C2.64057 2.80718 2.97971 2.66671 3.33333 2.66671H4V1.33337H5.33333V2.66671H10.6667V1.33337H12V2.66671H12.6667ZM12.6667 13.3334V6.00004H3.33333V13.3334H12.6667ZM6 10V11.3334H4.66667V10H6ZM8.66667 10V11.3334H7.33333V10H8.66667ZM11.3333 10V11.3334H10V10H11.3333Z" fill="#565D6A"/>
</svg>
