<svg width="16" height="16" viewBox="0 0 16 16" fill="none" xmlns="http://www.w3.org/2000/svg">
<path d="M6.84079 9.45246C5.38078 7.99244 5.05111 6.53242 4.97674 5.94747C4.95596 5.78572 5.01162 5.62352 5.12733 5.50862L6.30885 4.32763C6.48265 4.15393 6.51349 3.88323 6.38322 3.67489L4.50202 0.753802C4.3579 0.523103 4.06197 0.439841 3.81869 0.561542L0.798706 1.98385C0.601977 2.08072 0.486265 2.28974 0.508601 2.50788C0.66684 4.01115 1.32221 7.70655 4.95379 11.3384C8.58538 14.9702 12.2803 15.6254 13.7843 15.7836C14.0025 15.8059 14.2115 15.6902 14.3084 15.4935L15.7307 12.4735C15.8519 12.2308 15.7692 11.9356 15.5394 11.7912L12.6184 9.91056C12.4101 9.78015 12.1395 9.81077 11.9656 9.9844L10.7846 11.1659C10.6697 11.2816 10.5075 11.3373 10.3458 11.3165C9.76083 11.2421 8.30081 10.9125 6.84079 9.45246Z" fill="#18A0FB"/>
</svg>
