<svg width="24" height="25" viewBox="0 0 24 25" fill="none" xmlns="http://www.w3.org/2000/svg">
<circle cx="8" cy="10.6667" r="1" fill="#484C52"/>
<circle cx="12" cy="10.6667" r="1" fill="#484C52"/>
<circle cx="16" cy="10.6667" r="1" fill="#484C52"/>
<path d="M21 10.6667C21 9.73791 21 9.27349 20.9487 8.88359C20.5942 6.19119 18.4756 4.07254 15.7832 3.71808C15.3933 3.66675 14.9288 3.66675 14 3.66675H10C9.07116 3.66675 8.60674 3.66675 8.21684 3.71808C5.52444 4.07254 3.40579 6.19119 3.05133 8.88359C3 9.27349 3 9.73791 3 10.6667V10.6667V17.9322C3 19.3103 4.66625 20.0005 5.64075 19.026V19.026C6.51106 18.1557 7.69146 17.6667 8.92226 17.6667H14C14.9288 17.6667 15.3933 17.6667 15.7832 17.6154C18.4756 17.261 20.5942 15.1423 20.9487 12.4499C21 12.06 21 11.5956 21 10.6667V10.6667Z" stroke="#484C52" stroke-width="2" stroke-linejoin="round"/>
</svg>
