<svg width="16" height="16" viewBox="0 0 16 16" fill="none" xmlns="http://www.w3.org/2000/svg">
<path d="M7.66667 13.3334C10.6 13.3334 13 10.9334 13 8.00004C13 5.06671 10.6 2.66671 7.66667 2.66671C4.73333 2.66671 2.33333 5.06671 2.33333 8.00004C2.33333 10.9334 4.73333 13.3334 7.66667 13.3334ZM7.66667 1.33337C11.3333 1.33337 14.3333 4.33337 14.3333 8.00004C14.3333 11.6667 11.3333 14.6667 7.66667 14.6667C4 14.6667 1 11.6667 1 8.00004C1 4.33337 4 1.33337 7.66667 1.33337ZM8 8.53337L4.8 10.4L4.33333 9.46671L7 7.93337V4.66671H8V8.53337Z" fill="#565D6A"/>
</svg>
