<svg width="22" height="19" viewBox="0 0 22 19" fill="none" xmlns="http://www.w3.org/2000/svg">
<path d="M5 5.6665H9" stroke="#484C52" stroke-width="1.5" stroke-linecap="round" stroke-linejoin="round"/>
<path d="M21 8.1665C21 8.0895 21 7.6335 20.998 7.6015C20.962 7.1005 20.533 6.7015 19.993 6.6685C19.959 6.6665 19.918 6.6665 19.834 6.6665H17.232C15.446 6.6665 14 8.0095 14 9.6665C14 11.3235 15.447 12.6665 17.23 12.6665H19.833C19.917 12.6665 19.958 12.6665 19.993 12.6645C20.533 12.6315 20.963 12.2325 20.998 11.7315C21 11.6995 21 11.2435 21 11.1665" stroke="#484C52" stroke-width="1.5" stroke-linecap="round"/>
<path d="M17 10.6665C17.5523 10.6665 18 10.2188 18 9.6665C18 9.11422 17.5523 8.6665 17 8.6665C16.4477 8.6665 16 9.11422 16 9.6665C16 10.2188 16.4477 10.6665 17 10.6665Z" fill="#484C52"/>
<path d="M12 1.6665C15.771 1.6665 17.657 1.6665 18.828 2.8385C19.637 3.6465 19.888 4.7945 19.965 6.6665M9 17.6665H12C15.771 17.6665 17.657 17.6665 18.828 16.4945C19.637 15.6865 19.888 14.5385 19.965 12.6665M8 1.6665C4.886 1.6765 3.235 1.7745 2.172 2.8385C1 4.0095 1 5.8955 1 9.6665C1 13.4375 1 15.3235 2.172 16.4945C2.825 17.1485 3.7 17.4375 5 17.5645" stroke="#484C52" stroke-width="1.5" stroke-linecap="round"/>
</svg>
