<svg width="22" height="19" viewBox="0 0 22 19" fill="none" xmlns="http://www.w3.org/2000/svg">
<path d="M5 5.66675H9" stroke="#18A0FB" stroke-width="1.5" stroke-linecap="round" stroke-linejoin="round"/>
<path d="M21 8.16675C21 8.08975 21 7.63375 20.998 7.60175C20.962 7.10075 20.533 6.70175 19.993 6.66875C19.959 6.66675 19.918 6.66675 19.834 6.66675H17.232C15.446 6.66675 14 8.00975 14 9.66675C14 11.3237 15.447 12.6667 17.23 12.6667H19.833C19.917 12.6667 19.958 12.6667 19.993 12.6647C20.533 12.6317 20.963 12.2327 20.998 11.7317C21 11.6997 21 11.2437 21 11.1667" stroke="#18A0FB" stroke-width="1.5" stroke-linecap="round"/>
<path d="M17 10.6667C17.5523 10.6667 18 10.219 18 9.66675C18 9.11446 17.5523 8.66675 17 8.66675C16.4477 8.66675 16 9.11446 16 9.66675C16 10.219 16.4477 10.6667 17 10.6667Z" fill="#18A0FB"/>
<path d="M12 1.66675C15.771 1.66675 17.657 1.66675 18.828 2.83875C19.637 3.64675 19.888 4.79475 19.965 6.66675M9 17.6667H12C15.771 17.6667 17.657 17.6667 18.828 16.4947C19.637 15.6867 19.888 14.5387 19.965 12.6667M8 1.66675C4.886 1.67675 3.235 1.77475 2.172 2.83875C1 4.00975 1 5.89575 1 9.66675C1 13.4377 1 15.3237 2.172 16.4947C2.825 17.1487 3.7 17.4377 5 17.5647" stroke="#18A0FB" stroke-width="1.5" stroke-linecap="round"/>
</svg>
