<svg width="26" height="22" viewBox="0 0 26 22" fill="none" xmlns="http://www.w3.org/2000/svg">
<path d="M20.2619 11C20.2619 10.6434 20.3798 10.3014 20.5897 10.0493C20.7995 9.79716 21.0842 9.65552 21.3809 9.65552H21.3921C21.6889 9.65552 21.9736 9.79716 22.1834 10.0493C22.3933 10.3014 22.5112 10.6434 22.5112 11C22.5112 11.3565 22.3933 11.6985 22.1834 11.9506C21.9736 12.2028 21.6889 12.3444 21.3921 12.3444H21.3809C21.0842 12.3444 20.7995 12.2028 20.5897 11.9506C20.3798 11.6985 20.2619 11.3565 20.2619 11Z" fill="#172B85"/>
<path fill-rule="evenodd" clip-rule="evenodd" d="M19.8143 0.244507H2.80473C2.09244 0.244507 1.40932 0.584458 0.905646 1.18958C0.401977 1.79469 0.119019 2.61541 0.119019 3.47117V18.529C0.119019 19.3847 0.401977 20.2054 0.905646 20.8105C1.40932 21.4157 2.09244 21.7556 2.80473 21.7556H19.8143C20.5266 21.7556 21.2097 21.4157 21.7133 20.8105C22.217 20.2054 22.5 19.3847 22.5 18.529V16.3778H22.9476C23.7192 16.3778 24.4593 16.0096 25.0049 15.354C25.5506 14.6985 25.8571 13.8094 25.8571 12.8823V9.11784C25.8571 8.6588 25.7819 8.20425 25.6356 7.78015C25.4894 7.35605 25.2751 6.9707 25.0049 6.64611C24.7348 6.32152 24.414 6.06404 24.061 5.88837C23.708 5.7127 23.3297 5.62228 22.9476 5.62228H22.5V3.47117C22.5 2.61541 22.217 1.79469 21.7133 1.18958C21.2097 0.584458 20.5266 0.244507 19.8143 0.244507ZM17.5762 8.31117C17.3981 8.31117 17.2273 8.39616 17.1014 8.54744C16.9755 8.69872 16.9047 8.9039 16.9047 9.11784V12.8823C16.9047 13.0962 16.9755 13.3014 17.1014 13.4527C17.2273 13.604 17.3981 13.689 17.5762 13.689H22.9476C23.1257 13.689 23.2964 13.604 23.4224 13.4527C23.5483 13.3014 23.619 13.0962 23.619 12.8823V9.11784C23.619 8.9039 23.5483 8.69872 23.4224 8.54744C23.2964 8.39616 23.1257 8.31117 22.9476 8.31117H17.5762Z" fill="#172B85"/>
</svg>
