<svg width="11" height="10" viewBox="0 0 11 10" fill="none" xmlns="http://www.w3.org/2000/svg">
<mask id="mask0_120_776" style="mask-type:alpha" maskUnits="userSpaceOnUse" x="1" y="0" width="9" height="10">
<path d="M4.14238 8.58696L8.30914 4.42019L6.33001 2.44106L2.16325 6.60782C2.10588 6.66526 2.06513 6.73715 2.04532 6.81587L1.5835 9.16671L3.93389 8.70488C4.0128 8.68515 4.08499 8.64435 4.14238 8.58696ZM9.65427 3.07506C9.82239 2.9069 9.91683 2.67885 9.91683 2.44106C9.91683 2.20327 9.82239 1.97522 9.65427 1.80706L8.94315 1.09593C8.77498 0.927816 8.54693 0.833374 8.30914 0.833374C8.07136 0.833374 7.8433 0.927816 7.67514 1.09593L6.96401 1.80706L8.94315 3.78619L9.65427 3.07506Z" fill="#006FFD"/>
</mask>
<g mask="url(#mask0_120_776)">
<rect x="0.75" width="10" height="10" fill="white"/>
</g>
</svg>
