<svg width="16" height="14" viewBox="0 0 16 14" fill="none" xmlns="http://www.w3.org/2000/svg">
<path d="M0.500163 1.16667V0.75C0.389656 0.75 0.283675 0.793899 0.205535 0.872039C0.127395 0.950179 0.0834961 1.05616 0.0834961 1.16667H0.500163ZM15.5002 1.16667H15.9168C15.9168 1.05616 15.8729 0.950179 15.7948 0.872039C15.7167 0.793899 15.6107 0.75 15.5002 0.75V1.16667ZM0.500163 1.58333H15.5002V0.75H0.500163V1.58333ZM15.0835 1.16667V11.1667H15.9168V1.16667H15.0835ZM13.8335 12.4167H2.16683V13.25H13.8335V12.4167ZM0.916829 11.1667V1.16667H0.0834961V11.1667H0.916829ZM2.16683 12.4167C1.83531 12.4167 1.51737 12.285 1.28295 12.0505C1.04853 11.8161 0.916829 11.4982 0.916829 11.1667H0.0834961C0.0834961 11.7192 0.302989 12.2491 0.69369 12.6398C1.08439 13.0305 1.6143 13.25 2.16683 13.25V12.4167ZM15.0835 11.1667C15.0835 11.4982 14.9518 11.8161 14.7174 12.0505C14.483 12.285 14.165 12.4167 13.8335 12.4167V13.25C14.386 13.25 14.9159 13.0305 15.3066 12.6398C15.6973 12.2491 15.9168 11.7192 15.9168 11.1667H15.0835Z" fill="#18A0FB"/>
<path d="M0.5 1.16663L8 8.66663L15.5 1.16663" stroke="#18A0FB" stroke-linecap="round" stroke-linejoin="round"/>
</svg>
