<svg width="15" height="17" viewBox="0 0 15 17" fill="none" xmlns="http://www.w3.org/2000/svg">
<path fill-rule="evenodd" clip-rule="evenodd" d="M7.12377 4.41189C7.12377 5.90962 5.90962 7.12377 4.41189 7.12377C2.91415 7.12377 1.7 5.90962 1.7 4.41189C1.7 2.91415 2.91415 1.7 4.41189 1.7C5.90962 1.7 7.12377 2.91415 7.12377 4.41189ZM8.73638 5.29002C8.32924 7.30593 6.54782 8.82377 4.41189 8.82377C1.97527 8.82377 0 6.8485 0 4.41189C0 1.97527 1.97527 0 4.41189 0C6.54781 0 8.32922 1.51783 8.73637 3.53372C8.76495 3.53093 8.79393 3.52949 8.82325 3.52949H13.2351C13.7225 3.52949 14.1175 3.92455 14.1175 4.41187C14.1175 4.89919 13.7225 5.29425 13.2351 5.29425H8.82325C8.79394 5.29425 8.76496 5.29281 8.73638 5.29002Z" fill="white"/>
<path fill-rule="evenodd" clip-rule="evenodd" d="M7.877 12.3533C7.877 10.8555 9.09115 9.64137 10.5889 9.64137C12.0866 9.64137 13.3008 10.8555 13.3008 12.3533C13.3008 13.851 12.0866 15.0651 10.5889 15.0651C9.09115 15.0651 7.877 13.851 7.877 12.3533ZM6.26439 11.4751C6.67152 9.45921 8.45295 7.94137 10.5889 7.94137C13.0255 7.94137 15.0008 9.91663 15.0008 12.3533C15.0008 14.7899 13.0255 16.7651 10.5889 16.7651C8.45296 16.7651 6.67155 15.2473 6.2644 13.2314C6.2358 13.2342 6.2068 13.2356 6.17746 13.2356L1.76558 13.2356C1.27826 13.2356 0.883203 12.8406 0.883203 12.3533C0.883203 11.8659 1.27826 11.4709 1.76558 11.4709L6.17746 11.4709C6.2068 11.4709 6.23579 11.4723 6.26439 11.4751Z" fill="white"/>
</svg>
