<svg width="18" height="18" viewBox="0 0 18 18" fill="none" xmlns="http://www.w3.org/2000/svg">
<g clip-path="url(#clip0_121_1327)">
<path d="M4.93344 16.395V13.0672C4.93324 12.873 4.97134 12.6806 5.04555 12.5012C5.11976 12.3217 5.22863 12.1586 5.36593 12.0212C5.50322 11.8839 5.66626 11.7749 5.8457 11.7006C6.02514 11.6263 6.21747 11.5881 6.41169 11.5882V7.15121C6.41169 7.15121 5.30244 6.41246 3.45444 6.41246C1.60644 6.41246 0.496441 7.15196 0.496441 7.15196V11.589C1.31319 11.589 1.97544 12.2512 1.97544 13.068V16.395M11.5882 16.395V13.6837C11.5882 13.0185 12.0847 12.4785 12.6974 12.4785V8.86346C12.6974 8.86346 11.8649 8.26121 10.4789 8.26121C9.09294 8.26121 8.26044 8.86346 8.26044 8.86346V12.4785C8.87319 12.4785 9.37044 13.0185 9.37044 13.6837V16.395M17.8724 0.49646H0.127441M17.8724 17.5035H0.127441M16.0244 2.34521V15.6547C16.0244 15.39 15.8729 15.06 15.7147 14.7885C15.5032 14.4301 15.2312 14.1111 14.9107 13.8457C14.6647 13.6402 14.3722 13.437 14.1757 13.437M16.0244 2.34521C16.0244 2.60996 16.1767 2.93996 16.3349 3.21146C16.5457 3.57371 16.8224 3.88946 17.1389 4.15421C17.3849 4.35971 17.6774 4.56296 17.8739 4.56296M16.0244 2.34521C16.0244 2.60996 15.8729 2.93996 15.7147 3.21146C15.5039 3.57371 15.2272 3.88946 14.9107 4.15421C14.6647 4.35971 14.3722 4.56296 14.1757 4.56296M16.0244 15.6555C16.0244 15.39 16.1767 15.06 16.3349 14.7885C16.5457 14.4262 16.8224 14.1105 17.1389 13.8457C17.3849 13.6402 17.6774 13.437 17.8739 13.437M3.34344 4.93271C3.34344 4.93271 2.15994 4.19321 2.15994 3.26996C2.15994 2.55521 2.73969 1.97621 3.45444 1.97621C4.16919 1.97621 4.74444 2.55521 4.74444 3.26996C4.74444 4.19396 3.56469 4.93346 3.56469 4.93346L3.34344 4.93271ZM10.3852 6.96671C10.3852 6.96671 9.36969 6.31946 9.36969 5.51096C9.36969 4.88546 9.86694 4.37846 10.4797 4.37846C11.0932 4.37846 11.5882 4.88546 11.5882 5.51096C11.5882 6.31946 10.5757 6.96596 10.5757 6.96596L10.3852 6.96671Z" stroke="#18A0FB"/>
</g>
<defs>
<clipPath id="clip0_121_1327">
<rect width="18" height="18" fill="white"/>
</clipPath>
</defs>
</svg>
