<svg width="12" height="18" viewBox="0 0 12 18" fill="none" xmlns="http://www.w3.org/2000/svg">
<path d="M5.53264 14.8157L5.83333 15.2192L6.13403 14.8157C8.22563 12.0088 9.28668 10.1672 9.82404 8.90867C10.3691 7.63204 10.375 6.9547 10.375 6.49996C10.375 5.29543 9.8965 4.14024 9.04478 3.28852C8.19305 2.43679 7.03786 1.95829 5.83333 1.95829C4.62881 1.95829 3.47362 2.43679 2.62189 3.28852C1.77016 4.14024 1.29167 5.29543 1.29167 6.49996C1.29167 6.9547 1.29752 7.63204 1.84262 8.90867C2.37999 10.1672 3.44103 12.0088 5.53264 14.8157ZM5.83333 4.79163C6.28641 4.79163 6.72093 4.97161 7.04131 5.29199C7.36168 5.61236 7.54167 6.04688 7.54167 6.49996C7.54167 6.7243 7.49748 6.94645 7.41163 7.15371C7.32578 7.36097 7.19994 7.5493 7.04131 7.70793C6.88267 7.86657 6.69435 7.9924 6.48708 8.07825C6.27982 8.1641 6.05768 8.20829 5.83333 8.20829C5.38026 8.20829 4.94573 8.02831 4.62536 7.70793C4.30499 7.38756 4.125 6.95304 4.125 6.49996C4.125 6.04688 4.30498 5.61236 4.62536 5.29199C4.94573 4.97161 5.38026 4.79163 5.83333 4.79163ZM5.83333 1.04163C7.28097 1.04163 8.66932 1.6167 9.69296 2.64033C10.7166 3.66397 11.2917 5.05232 11.2917 6.49996C11.2917 7.51783 10.9502 8.68584 10.413 9.88505C9.87793 11.0794 9.16122 12.2773 8.43914 13.3475C7.71777 14.4167 6.99566 15.3516 6.45362 16.0195C6.2014 16.3303 5.98853 16.5828 5.83333 16.7636C5.67814 16.5828 5.46526 16.3303 5.21305 16.0195C4.671 15.3516 3.94889 14.4167 3.22753 13.3475C2.50544 12.2773 1.78873 11.0794 1.25368 9.88505C0.716435 8.68584 0.375 7.51783 0.375 6.49996C0.375 5.05232 0.950073 3.66397 1.97371 2.64033C2.99734 1.6167 4.38569 1.04163 5.83333 1.04163Z" stroke="#18A0FB" stroke-width="0.75"/>
</svg>
