<svg width="16" height="22" viewBox="0 0 16 22" fill="none" xmlns="http://www.w3.org/2000/svg">
<path d="M8 2.5C10.2 2.5 12 4.3 12 6.5C12 8.6 9.9 12 8 14.4C6.1 11.9 4 8.6 4 6.5C4 4.3 5.8 2.5 8 2.5ZM8 0.5C4.7 0.5 2 3.2 2 6.5C2 11 8 17.5 8 17.5C8 17.5 14 10.9 14 6.5C14 3.2 11.3 0.5 8 0.5ZM8 4.5C6.9 4.5 6 5.4 6 6.5C6 7.6 6.9 8.5 8 8.5C9.1 8.5 10 7.6 10 6.5C10 5.4 9.1 4.5 8 4.5ZM16 17.5C16 19.7 12.4 21.5 8 21.5C3.6 21.5 0 19.7 0 17.5C0 16.2 1.2 15.1 3.1 14.3L3.7 15.2C2.7 15.7 2 16.3 2 17C2 18.4 4.7 19.5 8 19.5C11.3 19.5 14 18.4 14 17C14 16.3 13.3 15.7 12.2 15.2L12.8 14.3C14.8 15.1 16 16.2 16 17.5Z" fill="#565D6A"/>
</svg>
