<svg width="14" height="22" viewBox="0 0 14 22" fill="none" xmlns="http://www.w3.org/2000/svg">
<path fill-rule="evenodd" clip-rule="evenodd" d="M6.94732 0C8.86578 0 10.421 1.55522 10.421 3.47368V11.5789C10.421 13.4974 8.86578 15.0526 6.94732 15.0526C5.02885 15.0526 3.47363 13.4974 3.47363 11.5789V3.47368C3.47363 1.55522 5.02885 0 6.94732 0Z" fill="white"/>
<path fill-rule="evenodd" clip-rule="evenodd" d="M13.0263 7.52637C12.5467 7.52637 12.1579 7.91517 12.1579 8.39479V11.579C12.1579 14.4567 9.82506 16.7895 6.94737 16.7895C4.06967 16.7895 1.73684 14.4567 1.73684 11.579V8.39479C1.73684 7.91517 1.34804 7.52637 0.868421 7.52637C0.388805 7.52637 0 7.91517 0 8.39479V11.579C0.00171524 15.0788 2.60655 18.031 6.07895 18.4685V20.2632H3.76316C3.28354 20.2632 2.89474 20.652 2.89474 21.1316C2.89474 21.6112 3.28354 22.0001 3.76316 22.0001H10.1316C10.6112 22.0001 11 21.6112 11 21.1316C11 20.652 10.6112 20.2632 10.1316 20.2632H7.81579V18.4685C11.2882 18.031 13.893 15.0788 13.8947 11.579V8.39479C13.8947 7.91517 13.5059 7.52637 13.0263 7.52637V7.52637Z" fill="white"/>
</svg>
