<svg width="18" height="20" viewBox="0 0 18 20" fill="none" xmlns="http://www.w3.org/2000/svg">
<path fill-rule="evenodd" clip-rule="evenodd" d="M7.04699 3.22C6.42599 3.388 5.84599 3.651 5.44199 4.015C4.33899 5.01 3.88999 6.358 3.88999 8.788C3.88999 10.52 2.90399 12.16 2.19399 13.222C2.03999 13.454 1.99199 13.675 2.00099 13.808C2.00499 13.868 2.01899 13.896 2.02499 13.906C2.02899 13.913 2.04099 13.932 2.08899 13.958C2.78099 14.328 3.82499 14.598 5.03199 14.769C6.19378 14.9249 7.36479 15.0021 8.53699 15C8.80221 15 9.05656 15.1054 9.2441 15.2929C9.43164 15.4804 9.53699 15.7348 9.53699 16C9.53699 16.2652 9.43164 16.5196 9.2441 16.7071C9.05656 16.8946 8.80221 17 8.53699 17C7.40899 17 6.05299 16.935 4.75099 16.75C3.46899 16.567 2.14799 16.257 1.14599 15.722C0.408993 15.328 0.0529929 14.642 0.00599288 13.943C-0.0400071 13.284 0.182993 12.633 0.530993 12.112C1.24799 11.038 1.88999 9.853 1.88999 8.788C1.88999 6.127 2.38199 4.081 4.10299 2.53C4.82799 1.876 5.73899 1.503 6.52199 1.29C7.17857 1.10792 7.85572 1.01046 8.53699 1C8.80221 1 9.05656 1.10536 9.2441 1.29289C9.43164 1.48043 9.53699 1.73478 9.53699 2C9.53699 2.26522 9.43164 2.51957 9.2441 2.70711C9.05656 2.89464 8.80221 3 8.53699 3C8.23099 3 7.66099 3.052 7.04699 3.22Z" fill="#18A0FB"/>
<path fill-rule="evenodd" clip-rule="evenodd" d="M10.027 3.22C10.648 3.388 11.228 3.651 11.632 4.015C12.735 5.01 13.184 6.358 13.184 8.788C13.184 10.52 14.17 12.16 14.88 13.222C15.034 13.454 15.082 13.675 15.073 13.808C15.0735 13.8422 15.0652 13.8759 15.049 13.906C15.045 13.913 15.033 13.932 14.985 13.958C14.293 14.328 13.249 14.598 12.042 14.769C10.8802 14.9249 9.7092 15.0021 8.53699 15C8.27178 15 8.01742 15.1054 7.82989 15.2929C7.64235 15.4804 7.53699 15.7348 7.53699 16C7.53699 16.2652 7.64235 16.5196 7.82989 16.7071C8.01742 16.8946 8.27178 17 8.53699 17C9.66499 17 11.02 16.935 12.323 16.75C13.605 16.567 14.926 16.257 15.928 15.722C16.665 15.328 17.021 14.642 17.068 13.943C17.114 13.284 16.891 12.633 16.543 12.112C15.826 11.038 15.184 9.853 15.184 8.788C15.184 6.127 14.692 4.081 12.971 2.53C12.246 1.876 11.335 1.503 10.552 1.29C9.89542 1.10792 9.21827 1.01046 8.53699 1C8.27178 1 8.01742 1.10536 7.82989 1.29289C7.64235 1.48043 7.53699 1.73478 7.53699 2C7.53699 2.26522 7.64235 2.51957 7.82989 2.70711C8.01742 2.89464 8.27178 3 8.53699 3C8.84299 3 9.41299 3.052 10.027 3.22Z" fill="#18A0FB"/>
<path d="M11.184 1.68C11.184 2.375 9.78799 1.722 8.68399 1.722C7.57999 1.722 6.18399 2.375 6.18399 1.679C6.18399 0.984 7.18399 0 8.68399 0C10.184 0 11.184 0.984 11.184 1.68Z" fill="#18A0FB"/>
<path fill-rule="evenodd" clip-rule="evenodd" d="M6.53699 16C6.53699 16.5304 6.74771 17.0391 7.12278 17.4142C7.49785 17.7893 8.00656 18 8.53699 18C9.06743 18 9.57614 17.7893 9.95121 17.4142C10.3263 17.0391 10.537 16.5304 10.537 16H12.537C12.537 17.0609 12.1156 18.0783 11.3654 18.8284C10.6153 19.5786 9.59786 20 8.53699 20C7.47613 20 6.45871 19.5786 5.70857 18.8284C4.95842 18.0783 4.53699 17.0609 4.53699 16H6.53699Z" fill="#18A0FB"/>
</svg>
