<svg width="24" height="25" viewBox="0 0 24 25" fill="none" xmlns="http://www.w3.org/2000/svg">
<path fill-rule="evenodd" clip-rule="evenodd" d="M10.51 5.88675C9.88901 6.05475 9.309 6.31775 8.905 6.68175C7.802 7.67675 7.35301 9.02475 7.35301 11.4547C7.35301 13.1867 6.36701 14.8267 5.65701 15.8887C5.50301 16.1207 5.45501 16.3417 5.46401 16.4747C5.46801 16.5347 5.48201 16.5627 5.48801 16.5727C5.49201 16.5797 5.50401 16.5987 5.55201 16.6247C6.24401 16.9947 7.28801 17.2647 8.49501 17.4357C9.6568 17.5917 10.8278 17.6688 12 17.6667C12.2652 17.6667 12.5196 17.7721 12.7071 17.9596C12.8946 18.1472 13 18.4015 13 18.6667C13 18.932 12.8946 19.1863 12.7071 19.3739C12.5196 19.5614 12.2652 19.6667 12 19.6667C10.872 19.6667 9.51601 19.6017 8.214 19.4167C6.932 19.2337 5.61101 18.9237 4.60901 18.3887C3.87201 17.9947 3.51601 17.3087 3.46901 16.6097C3.42301 15.9507 3.64601 15.2997 3.99401 14.7787C4.71101 13.7047 5.35301 12.5197 5.35301 11.4547C5.35301 8.79375 5.84501 6.74775 7.56601 5.19675C8.29101 4.54275 9.202 4.16975 9.985 3.95675C10.6416 3.77467 11.3187 3.67721 12 3.66675C12.2652 3.66675 12.5196 3.7721 12.7071 3.95964C12.8946 4.14718 13 4.40153 13 4.66675C13 4.93196 12.8946 5.18632 12.7071 5.37385C12.5196 5.56139 12.2652 5.66675 12 5.66675C11.694 5.66675 11.124 5.71875 10.51 5.88675Z" fill="#484C52"/>
<path fill-rule="evenodd" clip-rule="evenodd" d="M13.49 5.88675C14.111 6.05475 14.691 6.31775 15.095 6.68175C16.198 7.67675 16.647 9.02475 16.647 11.4547C16.647 13.1867 17.633 14.8267 18.343 15.8887C18.497 16.1207 18.545 16.3417 18.536 16.4747C18.5365 16.5089 18.5282 16.5427 18.512 16.5727C18.508 16.5797 18.496 16.5987 18.448 16.6247C17.756 16.9947 16.712 17.2647 15.505 17.4357C14.3432 17.5917 13.1722 17.6688 12 17.6667C11.7348 17.6667 11.4804 17.7721 11.2929 17.9596C11.1054 18.1472 11 18.4015 11 18.6667C11 18.932 11.1054 19.1863 11.2929 19.3739C11.4804 19.5614 11.7348 19.6667 12 19.6667C13.128 19.6667 14.483 19.6017 15.786 19.4167C17.068 19.2337 18.389 18.9237 19.391 18.3887C20.128 17.9947 20.484 17.3087 20.531 16.6097C20.577 15.9507 20.354 15.2997 20.006 14.7787C19.289 13.7047 18.647 12.5197 18.647 11.4547C18.647 8.79375 18.155 6.74775 16.434 5.19675C15.709 4.54275 14.798 4.16975 14.015 3.95675C13.3584 3.77467 12.6813 3.67721 12 3.66675C11.7348 3.66675 11.4804 3.7721 11.2929 3.95964C11.1054 4.14718 11 4.40153 11 4.66675C11 4.93196 11.1054 5.18632 11.2929 5.37385C11.4804 5.56139 11.7348 5.66675 12 5.66675C12.306 5.66675 12.876 5.71875 13.49 5.88675Z" fill="#484C52"/>
<path d="M14.647 4.34675C14.647 5.04175 13.251 4.38875 12.147 4.38875C11.043 4.38875 9.64703 5.04175 9.64703 4.34575C9.64703 3.65075 10.647 2.66675 12.147 2.66675C13.647 2.66675 14.647 3.65075 14.647 4.34675Z" fill="#484C52"/>
<path fill-rule="evenodd" clip-rule="evenodd" d="M10 18.6667C10 19.1972 10.2107 19.7059 10.5858 20.081C10.9609 20.456 11.4696 20.6667 12 20.6667C12.5304 20.6667 13.0391 20.456 13.4142 20.081C13.7893 19.7059 14 19.1972 14 18.6667H16C16 19.7276 15.5786 20.745 14.8284 21.4952C14.0783 22.2453 13.0609 22.6667 12 22.6667C10.9391 22.6667 9.92172 22.2453 9.17157 21.4952C8.42143 20.745 8 19.7276 8 18.6667H10Z" fill="#484C52"/>
</svg>
