<svg width="40" height="40" viewBox="0 0 40 40" fill="none" xmlns="http://www.w3.org/2000/svg">
<rect width="40" height="40" rx="8" fill="white"/>
<path d="M23 26V26.75C23 27.5456 22.6839 28.3087 22.1213 28.8713C21.5587 29.4339 20.7956 29.75 20 29.75C19.2043 29.75 18.4413 29.4339 17.8787 28.8713C17.3161 28.3087 17 27.5456 17 26.75V26M28.0475 24.4733C26.8437 23 25.9939 22.25 25.9939 18.1883C25.9939 14.4688 24.0945 13.1436 22.5312 12.5C22.3236 12.4147 22.1281 12.2187 22.0648 12.0055C21.7906 11.0722 21.0219 10.25 20 10.25C18.9781 10.25 18.2089 11.0727 17.9375 12.0064C17.8742 12.222 17.6787 12.4147 17.4711 12.5C15.9059 13.1445 14.0084 14.465 14.0084 18.1883C14.0061 22.25 13.1562 23 11.9525 24.4733C11.4537 25.0836 11.8906 26 12.763 26H27.2417C28.1094 26 28.5434 25.0808 28.0475 24.4733Z" stroke="#240046" stroke-width="1.5" stroke-linecap="round" stroke-linejoin="round"/>
<circle cx="26" cy="12" r="3.5" fill="#18A0FB" stroke="white"/>
</svg>
