<svg width="17" height="15" viewBox="0 0 17 15" fill="none" xmlns="http://www.w3.org/2000/svg">
<path d="M16.3102 7.1615C16.1763 7.1615 16.0678 7.27335 16.0678 7.41132V13.6279C16.0678 13.9237 15.8341 14.1644 15.547 14.1644H1.00571C0.718556 14.1644 0.484943 13.9237 0.484943 13.6279V12.6391C0.484943 12.5011 0.37638 12.3892 0.242471 12.3892C0.108563 12.3892 0 12.5011 0 12.6391V13.6279C0 14.1992 0.451158 14.6641 1.00571 14.6641H15.547C16.1015 14.6641 16.5527 14.1992 16.5527 13.6279V7.41132C16.5527 7.27335 16.4442 7.1615 16.3102 7.1615Z" fill="#FFA873"/>
<path d="M15.547 2.32412H15.3703V1.67958H15.9869C16.1209 1.67958 16.2294 1.56773 16.2294 1.42976C16.2294 1.2918 16.1209 1.17995 15.9869 1.17995H15.3703V0.930126C15.3703 0.79216 15.2618 0.680307 15.1279 0.680307C14.9939 0.680307 14.8854 0.79216 14.8854 0.930126V1.17995H13.2079V0.930126C13.2079 0.79216 13.0993 0.680307 12.9654 0.680307C12.8315 0.680307 12.7229 0.79216 12.7229 0.930126V1.17995H11.0454V0.930126C11.0454 0.79216 10.9369 0.680307 10.8029 0.680307C10.669 0.680307 10.5605 0.79216 10.5605 0.930126V1.17995H9.64299C9.52796 0.510297 8.959 0 8.27649 0C7.59398 0 7.02501 0.510264 6.90995 1.17995H5.99218V0.930126C5.99218 0.79216 5.88362 0.680307 5.74971 0.680307C5.6158 0.680307 5.50724 0.79216 5.50724 0.930126V1.17995H3.82972V0.930126C3.82972 0.79216 3.72116 0.680307 3.58725 0.680307C3.45334 0.680307 3.34478 0.79216 3.34478 0.930126V1.17995H1.66733V0.930126C1.66733 0.79216 1.55877 0.680307 1.42486 0.680307C1.29095 0.680307 1.18239 0.79216 1.18239 0.930126V1.17995H0.565767C0.431858 1.17995 0.323295 1.2918 0.323295 1.42976C0.323295 1.56773 0.431858 1.67958 0.565767 1.67958H1.18239V2.32412H1.00574C0.451158 2.32412 0 2.78895 0 3.36033V11.4858C0 11.6237 0.108563 11.7356 0.242471 11.7356C0.37638 11.7356 0.484943 11.6237 0.484943 11.4858V4.88893H2.86355C2.99746 4.88893 3.10603 4.77707 3.10603 4.63911C3.10603 4.50114 2.99746 4.38929 2.86355 4.38929H0.484943V3.36033C0.484943 3.06448 0.718556 2.82376 1.00571 2.82376H1.18236V3.07357C1.18236 3.21154 1.29092 3.32339 1.42483 3.32339C1.55874 3.32339 1.6673 3.21154 1.6673 3.07357V2.82376H3.34481V3.07357C3.34481 3.21154 3.45337 3.32339 3.58728 3.32339C3.72119 3.32339 3.82976 3.21154 3.82976 3.07357V2.82376H5.50727V3.07357C5.50727 3.21154 5.61583 3.32339 5.74974 3.32339C5.88365 3.32339 5.99221 3.21154 5.99221 3.07357V2.82376H7.3463C7.59996 3.05935 7.93328 3.19262 8.27649 3.19262C8.61973 3.19262 8.95305 3.05935 9.20667 2.82376H10.5604V3.07357C10.5604 3.21154 10.669 3.32339 10.8029 3.32339C10.9369 3.32339 11.0454 3.21154 11.0454 3.07357V2.82376H12.7229V3.07357C12.7229 3.21154 12.8314 3.32339 12.9654 3.32339C13.0993 3.32339 13.2078 3.21154 13.2078 3.07357V2.82376H14.8854V3.07357C14.8854 3.21154 14.9939 3.32339 15.1278 3.32339C15.2618 3.32339 15.3703 3.21154 15.3703 3.07357V2.82376H15.547C15.8341 2.82376 16.0677 3.06448 16.0677 3.36033V4.38929H3.97601C3.84211 4.38929 3.73354 4.50114 3.73354 4.63911C3.73354 4.77707 3.84211 4.88893 3.97601 4.88893H16.0678V6.25194C16.0678 6.38991 16.1763 6.50176 16.3102 6.50176C16.4442 6.50176 16.5527 6.38991 16.5527 6.25194V3.36033C16.5527 2.78895 16.1016 2.32412 15.547 2.32412ZM1.66733 2.32412V1.67958H3.34484V2.32412H1.66733ZM3.82979 2.32412V1.67958H5.5073V2.32412H3.82979ZM9.10826 2.32412C9.04163 2.32412 8.97797 2.35236 8.93219 2.40219C8.75988 2.58972 8.52704 2.69298 8.27652 2.69298C8.026 2.69298 7.79316 2.58969 7.62084 2.40219C7.57503 2.35236 7.51138 2.32412 7.44478 2.32412H5.99224V1.67958H7.13128C7.26519 1.67958 7.37375 1.56773 7.37375 1.42976C7.37375 0.916903 7.77874 0.499638 8.27652 0.499638C8.7743 0.499638 9.17929 0.916869 9.17929 1.42976C9.17929 1.56773 9.28782 1.67958 9.42176 1.67958H10.5605V2.32412H9.10826ZM11.0454 2.32412V1.67958H12.7229V2.32412H11.0454ZM13.2079 2.32412V1.67958H14.8854V2.32412H13.2079Z" fill="#FFA873"/>
<path d="M1.52738 7.8147H3.09048C3.22439 7.8147 3.33295 7.70284 3.33295 7.56488V5.95441C3.33295 5.81644 3.22439 5.70459 3.09048 5.70459H1.52738C1.39347 5.70459 1.28491 5.81644 1.28491 5.95441V7.56488C1.28491 7.70284 1.39344 7.8147 1.52738 7.8147ZM1.76985 6.20423H2.84801V7.31506H1.76985V6.20423Z" fill="#FFA873"/>
<path d="M13.4627 7.8147H15.0258C15.1598 7.8147 15.2683 7.70284 15.2683 7.56488V5.95441C15.2683 5.81644 15.1598 5.70459 15.0258 5.70459H13.4627C13.3287 5.70459 13.2202 5.81644 13.2202 5.95441V7.56488C13.2202 7.70284 13.3287 7.8147 13.4627 7.8147ZM13.7052 6.20423H14.7833V7.31506H13.7052V6.20423Z" fill="#FFA873"/>
<path d="M7.49467 7.8147H9.05777C9.19171 7.8147 9.30024 7.70284 9.30024 7.56488V5.95441C9.30024 5.81644 9.19171 5.70459 9.05777 5.70459H7.49467C7.36076 5.70459 7.2522 5.81644 7.2522 5.95441V7.56488C7.2522 7.70284 7.36076 7.8147 7.49467 7.8147ZM7.73714 6.20423H8.8153V7.31506H7.73714V6.20423Z" fill="#FFA873"/>
<path d="M4.51103 7.8147H6.07412C6.20803 7.8147 6.3166 7.70284 6.3166 7.56488V5.95441C6.3166 5.81644 6.20803 5.70459 6.07412 5.70459H4.51103C4.37712 5.70459 4.26855 5.81644 4.26855 5.95441V7.56488C4.26855 7.70284 4.37712 7.8147 4.51103 7.8147ZM4.7535 6.20423H5.83165V7.31506H4.7535V6.20423Z" fill="#FFA873"/>
<path d="M10.4786 7.8147H12.0417C12.1756 7.8147 12.2841 7.70284 12.2841 7.56488V5.95441C12.2841 5.81644 12.1756 5.70459 12.0417 5.70459H10.4786C10.3446 5.70459 10.2361 5.81644 10.2361 5.95441V7.56488C10.2361 7.70284 10.3446 7.8147 10.4786 7.8147ZM10.721 6.20423H11.7992V7.31506H10.721V6.20423Z" fill="#FFA873"/>
<path d="M1.28467 13.0408C1.28467 13.1788 1.39323 13.2906 1.52714 13.2906H3.09024C3.22415 13.2906 3.33271 13.1788 3.33271 13.0408V11.4304C3.33271 11.2924 3.22415 11.1805 3.09024 11.1805H1.52714C1.39323 11.1805 1.28467 11.2924 1.28467 11.4304V13.0408ZM1.76961 11.6802H2.84777V12.791H1.76961V11.6802Z" fill="#FFA873"/>
<path d="M13.2197 13.0408C13.2197 13.1788 13.3283 13.2906 13.4622 13.2906H15.0253C15.1593 13.2906 15.2678 13.1788 15.2678 13.0408V11.4304C15.2678 11.2924 15.1593 11.1805 15.0253 11.1805H13.4622C13.3283 11.1805 13.2197 11.2924 13.2197 11.4304V13.0408ZM13.7047 11.6802H14.7829V12.791H13.7047V11.6802Z" fill="#FFA873"/>
<path d="M7.25171 13.0408C7.25171 13.1788 7.36027 13.2906 7.49418 13.2906H9.05728C9.19122 13.2906 9.29975 13.1788 9.29975 13.0408V11.4304C9.29975 11.2924 9.19122 11.1805 9.05728 11.1805H7.49418C7.36027 11.1805 7.25171 11.2924 7.25171 11.4304V13.0408ZM7.73665 11.6802H8.81481V12.791H7.73665V11.6802Z" fill="#FFA873"/>
<path d="M4.26807 13.0408C4.26807 13.1788 4.37663 13.2906 4.51054 13.2906H6.07364C6.20755 13.2906 6.31611 13.1788 6.31611 13.0408V11.4304C6.31611 11.2924 6.20755 11.1805 6.07364 11.1805H4.51054C4.37663 11.1805 4.26807 11.2924 4.26807 11.4304V13.0408ZM4.75301 11.6802H5.83117V12.791H4.75301V11.6802Z" fill="#FFA873"/>
<path d="M10.2356 13.0408C10.2356 13.1788 10.3441 13.2906 10.4781 13.2906H12.0412C12.1751 13.2906 12.2836 13.1788 12.2836 13.0408V11.4304C12.2836 11.2924 12.1751 11.1805 12.0412 11.1805H10.4781C10.3441 11.1805 10.2356 11.2924 10.2356 11.4304V13.0408ZM10.7205 11.6802H11.7987V12.791H10.7205V11.6802Z" fill="#FFA873"/>
<path d="M1.28467 10.3028C1.28467 10.4408 1.39323 10.5526 1.52714 10.5526H3.09024C3.22415 10.5526 3.33271 10.4408 3.33271 10.3028V8.69232C3.33271 8.55436 3.22415 8.4425 3.09024 8.4425H1.52714C1.39323 8.4425 1.28467 8.55436 1.28467 8.69232V10.3028ZM1.76961 8.94214H2.84777V10.053H1.76961V8.94214Z" fill="#FFA873"/>
<path d="M13.2197 10.3028C13.2197 10.4408 13.3283 10.5526 13.4622 10.5526H15.0253C15.1593 10.5526 15.2678 10.4408 15.2678 10.3028V8.69232C15.2678 8.55436 15.1593 8.4425 15.0253 8.4425H13.4622C13.3283 8.4425 13.2197 8.55436 13.2197 8.69232V10.3028ZM13.7047 8.94214H14.7829V10.053H13.7047V8.94214Z" fill="#FFA873"/>
<path d="M7.25171 10.3028C7.25171 10.4408 7.36027 10.5526 7.49418 10.5526H9.05728C9.19122 10.5526 9.29975 10.4408 9.29975 10.3028V8.69232C9.29975 8.55436 9.19122 8.4425 9.05728 8.4425H7.49418C7.36027 8.4425 7.25171 8.55436 7.25171 8.69232V10.3028ZM7.73665 8.94214H8.81481V10.053H7.73665V8.94214Z" fill="#FFA873"/>
<path d="M4.26807 10.3028C4.26807 10.4408 4.37663 10.5526 4.51054 10.5526H6.07364C6.20755 10.5526 6.31611 10.4408 6.31611 10.3028V8.69232C6.31611 8.55436 6.20755 8.4425 6.07364 8.4425H4.51054C4.37663 8.4425 4.26807 8.55436 4.26807 8.69232V10.3028ZM4.75301 8.94214H5.83117V10.053H4.75301V8.94214Z" fill="#FFA873"/>
<path d="M10.2356 10.3028C10.2356 10.4408 10.3441 10.5526 10.4781 10.5526H12.0412C12.1751 10.5526 12.2836 10.4408 12.2836 10.3028V8.69232C12.2836 8.55436 12.1751 8.4425 12.0412 8.4425H10.4781C10.3441 8.4425 10.2356 8.55436 10.2356 8.69232V10.3028ZM10.7205 8.94214H11.7987V10.053H10.7205V8.94214Z" fill="#FFA873"/>
</svg>
