<svg width="20" height="20" viewBox="0 0 20 20" fill="none" xmlns="http://www.w3.org/2000/svg">
<path d="M11.6759 0.949585C11.0938 0.961304 10.6759 1.07458 10.3985 1.27771L6.59774 3.31287L4.48446 6.18748C4.03915 6.87498 4.35556 8.2031 5.74618 7.35154L7.26962 5.34373C9.20321 3.67615 13.1485 4.44138 11.2774 7.78904C10.3595 9.72654 10.7891 10.6719 11.9727 11.0703L12.5118 9.25779C13.4454 7.15623 15.1876 6.77732 15.1173 5.08201L19.3048 5.38279L19.2657 1.00427L11.6759 0.949585ZM9.56259 4.98826C8.8829 4.97654 8.21493 5.25779 7.73056 5.66404L6.20321 7.67185C6.62118 8.00388 7.04306 7.82419 7.46102 7.42185C7.95321 7.67185 8.33602 7.28513 8.64852 6.51169C8.77743 5.98435 8.96884 5.61326 9.56259 4.98826ZM6.45321 8.73826C6.43759 8.73826 6.41806 8.73826 6.40243 8.74216C6.27352 8.76951 6.12118 8.90623 6.01962 9.21873C5.91415 9.53123 5.89071 9.97654 5.98446 10.4531C6.07821 10.9258 6.27352 11.3281 6.49227 11.5781C6.70321 11.8242 6.89852 11.8945 7.02743 11.8672C7.16024 11.8437 7.30868 11.7031 7.41024 11.3945C7.51571 11.082 7.54306 10.6328 7.44931 10.1601C7.35165 9.68357 7.15634 9.28123 6.94149 9.03513C6.75399 8.81638 6.58212 8.73826 6.45321 8.73826ZM9.67977 12.9101C9.37118 12.914 8.98446 13.0117 8.60556 13.1953C8.17196 13.4101 7.83212 13.707 7.64852 13.9804C7.46493 14.25 7.44931 14.4531 7.5079 14.5742C7.56649 14.6914 7.73837 14.8047 8.06649 14.8203C8.39462 14.8398 8.83602 14.75 9.26962 14.5351C9.70321 14.3203 10.0431 14.0273 10.2266 13.7539C10.4102 13.4844 10.4259 13.2773 10.3673 13.1601C10.3087 13.039 10.1368 12.9297 9.80868 12.914C9.76571 12.9101 9.72665 12.9101 9.67977 12.9101ZM5.86727 16.6445C5.68368 16.6484 5.51571 16.6758 5.36727 16.7187C5.03524 16.8164 4.84384 16.9922 4.78134 17.1992C4.71493 17.4101 4.78134 17.6601 5.00399 17.9297C5.23056 18.1953 5.60946 18.4492 6.07821 18.5898C6.54306 18.7304 6.99618 18.7265 7.33212 18.625C7.66806 18.5273 7.85946 18.3515 7.92196 18.1445C7.98446 17.9336 7.92196 17.6836 7.6954 17.414C7.47274 17.1484 7.09384 16.8945 6.62509 16.7539C6.35946 16.6758 6.10165 16.6406 5.86727 16.6445Z" fill="#18A0FB"/>
</svg>
