<svg width="24" height="25" viewBox="0 0 24 25" fill="none" xmlns="http://www.w3.org/2000/svg">
<path d="M4 18.6667C4 17.6059 4.42143 16.5885 5.17157 15.8383C5.92172 15.0882 6.93913 14.6667 8 14.6667H16C17.0609 14.6667 18.0783 15.0882 18.8284 15.8383C19.5786 16.5885 20 17.6059 20 18.6667C20 19.1972 19.7893 19.7059 19.4142 20.081C19.0391 20.456 18.5304 20.6667 18 20.6667H6C5.46957 20.6667 4.96086 20.456 4.58579 20.081C4.21071 19.7059 4 19.1972 4 18.6667Z" stroke="#484C52" stroke-width="2" stroke-linejoin="round"/>
<path d="M12 10.6667C13.6569 10.6667 15 9.3236 15 7.66675C15 6.00989 13.6569 4.66675 12 4.66675C10.3431 4.66675 9 6.00989 9 7.66675C9 9.3236 10.3431 10.6667 12 10.6667Z" stroke="#484C52" stroke-width="2"/>
</svg>
