<svg width="18" height="18" viewBox="0 0 18 18" fill="none" xmlns="http://www.w3.org/2000/svg">
<path d="M16.485 17.154L10.223 10.892C9.72301 11.318 9.14801 11.6477 8.49801 11.881C7.84801 12.1144 7.19468 12.231 6.53801 12.231C4.93668 12.231 3.58135 11.6767 2.47201 10.568C1.36268 9.45938 0.808014 8.10438 0.808014 6.50305C0.808014 4.90171 1.36201 3.54605 2.47001 2.43605C3.57801 1.32605 4.93268 0.770379 6.53401 0.769045C8.13535 0.767712 9.49135 1.32238 10.602 2.43305C11.7127 3.54371 12.268 4.89938 12.268 6.50005C12.268 7.19471 12.145 7.86705 11.899 8.51705C11.653 9.16705 11.3297 9.72305 10.929 10.185L17.191 16.446L16.485 17.154ZM6.53901 11.23C7.86568 11.23 8.98568 10.7734 9.89901 9.86005C10.8123 8.94671 11.269 7.82638 11.269 6.49904C11.269 5.17171 10.8123 4.05171 9.89901 3.13905C8.98568 2.22638 7.86568 1.76971 6.53901 1.76905C5.21235 1.76838 4.09201 2.22505 3.17801 3.13905C2.26401 4.05305 1.80735 5.17305 1.80801 6.49904C1.80868 7.82504 2.26535 8.94505 3.17801 9.85905C4.09068 10.773 5.21068 11.2297 6.53801 11.229" fill="#979797"/>
</svg>
