<svg width="24" height="22" viewBox="0 0 24 22" fill="none" xmlns="http://www.w3.org/2000/svg">
<path d="M17.5946 8.82246C17.5946 8.82246 18.5514 8.09489 17.8231 7.36731C17.0947 6.63973 16.3866 7.57864 16.3866 7.57864L9.06484 14.902C9.06484 14.902 7.35 17.1151 6.04613 15.777C4.74382 14.4372 6.92032 12.7575 6.92032 12.7575L16.5208 3.1578C16.5208 3.1578 18.7612 0.689649 20.8675 2.7944C22.9707 4.89994 20.4956 7.14506 20.4956 7.14506L9.7082 17.9324C9.7082 17.9324 6.25669 21.9197 3.06174 18.7239C-0.133216 15.5282 3.89303 12.1157 3.89303 12.1157L12.0828 3.92359C12.0828 3.92359 12.9999 3.1578 12.3128 2.46843C11.6227 1.77985 10.8584 2.69848 10.8584 2.69848L1.46075 12.0962C1.46075 12.0962 -2.08668 15.9867 1.87484 19.9475C5.83636 23.9106 9.72926 20.3631 9.72926 20.3631L22.6455 7.44529C22.6455 7.44529 25.2299 4.59502 22.1488 1.51237C19.0677 -1.57029 16.2166 1.01406 16.2166 1.01406L5.10254 12.1266C5.10254 12.1266 2.25617 14.4419 4.83896 17.0231C7.42175 19.6075 9.69494 16.719 9.69494 16.719L17.5946 8.82246Z" fill="white"/>
</svg>
