<svg width="37" height="38" viewBox="0 0 37 38" fill="none" xmlns="http://www.w3.org/2000/svg">
<path d="M21.6715 3.43326L24.8982 9.88659C25.3382 10.7849 26.5115 11.6466 27.5015 11.8116L33.3498 12.7833C37.0898 13.4066 37.9698 16.1199 35.2748 18.7966L30.7282 23.3433C29.9582 24.1133 29.5365 25.5983 29.7748 26.6616L31.0765 32.2899C32.1032 36.7449 29.7382 38.4683 25.7965 36.1399L20.3148 32.8949C19.3248 32.3083 17.6932 32.3083 16.6848 32.8949L11.2032 36.1399C7.27983 38.4683 4.8965 36.7266 5.92317 32.2899L7.22483 26.6616C7.46317 25.5983 7.0415 24.1133 6.2715 23.3433L1.72483 18.7966C-0.951833 16.1199 -0.0901663 13.4066 3.64983 12.7833L9.49817 11.8116C10.4698 11.6466 11.6432 10.7849 12.0832 9.88659L15.3098 3.43326C17.0698 -0.0684099 19.9298 -0.0684099 21.6715 3.43326Z" fill="#FABF35"/>
</svg>
