<svg width="14" height="14" viewBox="0 0 14 14" fill="none" xmlns="http://www.w3.org/2000/svg">
<path d="M5.83325 8.75L5.83325 7" stroke="#DA4963" stroke-linecap="round"/>
<path d="M8.16675 8.75L8.16675 7" stroke="#DA4963" stroke-linecap="round"/>
<path d="M1.75 4.08337H12.25V4.08337C11.2835 4.08337 10.5 4.86688 10.5 5.83337V8.16671C10.5 9.57117 10.5 10.2734 10.1629 10.7778C10.017 10.9962 9.82952 11.1837 9.61114 11.3296C9.10669 11.6667 8.40446 11.6667 7 11.6667V11.6667C5.59554 11.6667 4.89331 11.6667 4.38886 11.3296C4.17048 11.1837 3.98298 10.9962 3.83706 10.7778C3.5 10.2734 3.5 9.57117 3.5 8.16671V5.83338C3.5 4.86688 2.7165 4.08337 1.75 4.08337V4.08337Z" stroke="#DA4963" stroke-linecap="round"/>
<path d="M5.87317 1.96618C5.93964 1.90416 6.08611 1.84936 6.28986 1.81027C6.49361 1.77119 6.74326 1.75 7.00008 1.75C7.2569 1.75 7.50655 1.77119 7.7103 1.81027C7.91405 1.84936 8.06052 1.90416 8.12699 1.96618" stroke="#DA4963" stroke-linecap="round"/>
</svg>
