<svg width="18" height="13" viewBox="0 0 18 13" fill="none" xmlns="http://www.w3.org/2000/svg">
<path d="M17.2413 1.00293C17.1562 0.971144 17.0744 0.955187 16.9958 0.955187C16.8189 0.955187 16.6718 1.0158 16.5538 1.1367L12.5958 4.97634V3.40042C12.5958 2.6426 12.3191 1.99481 11.7658 1.45672C11.2125 0.91869 10.5464 0.649658 9.7671 0.649658H2.85293C2.07383 0.649658 1.40757 0.91869 0.854213 1.45672C0.30106 1.99481 0.0244141 2.6426 0.0244141 3.40042V10.1244C0.0244141 10.8821 0.30106 11.5299 0.854247 12.068C1.40761 12.606 2.07387 12.8751 2.85296 12.8751H9.76717C10.5465 12.8751 11.2126 12.606 11.7659 12.068C12.3192 11.5299 12.5958 10.8822 12.5958 10.1244V8.53881L16.5539 12.388C16.6719 12.5088 16.819 12.5694 16.9958 12.5694C17.0745 12.5694 17.1563 12.5535 17.2414 12.5218C17.4969 12.4135 17.6245 12.2257 17.6245 11.9583V1.56658C17.6244 1.29902 17.4968 1.11121 17.2413 1.00293Z" fill="#18A0FB"/>
</svg>
