<svg width="20" height="16" viewBox="0 0 20 16" fill="none" xmlns="http://www.w3.org/2000/svg">
<path d="M4.5 4.33325H8.16667" stroke="#33384B" stroke-width="1.5" stroke-linecap="round" stroke-linejoin="round"/>
<path d="M19.1667 6.625C19.1667 6.55442 19.1667 6.13642 19.1648 6.10708C19.1318 5.64783 18.7386 5.28208 18.2436 5.25183C18.2124 5.25 18.1748 5.25 18.0978 5.25H15.7127C14.0755 5.25 12.75 6.48108 12.75 8C12.75 9.51892 14.0764 10.75 15.7108 10.75H18.0969C18.1739 10.75 18.2115 10.75 18.2436 10.7482C18.7386 10.7179 19.1327 10.3522 19.1648 9.89292C19.1667 9.86358 19.1667 9.44558 19.1667 9.375" stroke="#33384B" stroke-width="1.5" stroke-linecap="round"/>
<path d="M15.5 8.91659C16.0063 8.91659 16.4167 8.50618 16.4167 7.99992C16.4167 7.49366 16.0063 7.08325 15.5 7.08325C14.9937 7.08325 14.5833 7.49366 14.5833 7.99992C14.5833 8.50618 14.9937 8.91659 15.5 8.91659Z" fill="#33384B"/>
<path d="M10.9167 0.666626C14.3734 0.666626 16.1023 0.666626 17.1757 1.74096C17.9173 2.48163 18.1473 3.53396 18.2179 5.24996M8.16668 15.3333H10.9167C14.3734 15.3333 16.1023 15.3333 17.1757 14.259C17.9173 13.5183 18.1473 12.466 18.2179 10.75M7.25001 0.666626C4.39551 0.675793 2.88209 0.765626 1.90768 1.74096C0.833343 2.81438 0.833344 4.54321 0.833344 7.99996C0.833344 11.4567 0.833343 13.1855 1.90768 14.259C2.50626 14.8585 3.30834 15.1234 4.50001 15.2398" stroke="#33384B" stroke-linecap="round"/>
</svg>
