<svg width="16" height="16" viewBox="0 0 16 16" fill="none" xmlns="http://www.w3.org/2000/svg">
<path fill-rule="evenodd" clip-rule="evenodd" d="M12.9376 4.77081C13.2467 5.11206 13.1522 5.63581 12.7751 5.89998L10.7451 7.32415C10.3684 7.58831 9.85341 7.48165 9.48132 7.21165C9.06248 6.90675 8.55974 6.73854 8.04174 6.72998C7.52373 6.72148 7.01569 6.87279 6.58674 7.16331C6.20549 7.42123 5.68757 7.51081 5.32007 7.23415L3.33799 5.74331C2.97049 5.46665 2.89299 4.93956 3.21341 4.60915C3.84791 3.95479 4.60986 3.4375 5.45217 3.08923C6.29447 2.74096 7.19925 2.56911 8.11059 2.5843C9.02193 2.59949 9.92048 2.8014 10.7507 3.17755C11.5809 3.55369 12.3252 4.09568 12.9376 4.77081ZM12.248 5.2529C11.7138 4.68515 11.0712 4.23025 10.3582 3.91506C9.64516 3.59987 8.87621 3.43079 8.09675 3.41782C7.31729 3.40484 6.54314 3.54824 5.82004 3.83952C5.09694 4.13081 4.43956 4.56408 3.88674 5.11373L5.81924 6.56706C5.83704 6.57085 5.85534 6.57169 5.87341 6.56956C5.93882 6.56373 6.03049 6.53373 6.11924 6.47373C6.70809 6.07487 7.40847 5.87351 8.11924 5.89873C8.13507 5.8654 8.15577 5.83401 8.18132 5.80456L9.32549 4.48873C9.39798 4.4053 9.50065 4.35408 9.61091 4.34634C9.72116 4.33861 9.82997 4.37499 9.91341 4.44748C9.99684 4.51997 10.0481 4.62264 10.0558 4.7329C10.0635 4.84315 10.0271 4.95196 9.95466 5.0354L9.05674 6.0679C9.38405 6.17619 9.69258 6.3346 9.97132 6.53748C10.058 6.6004 10.1484 6.63331 10.2138 6.64165C10.2455 6.64581 10.2622 6.6429 10.268 6.64123L12.248 5.2529ZM10.2717 6.63998L10.268 6.64123C10.2697 6.63984 10.2712 6.63943 10.2717 6.63998Z" fill="#18A0FB"/>
<path fill-rule="evenodd" clip-rule="evenodd" d="M13.0899 15.5C13.5159 15.5 13.9258 15.3369 14.2353 15.0441C14.5448 14.7514 14.7304 14.3512 14.754 13.9258L15.4024 2.25917C15.4149 2.03285 15.3812 1.80635 15.3033 1.59351C15.2253 1.38067 15.1048 1.18596 14.949 1.0213C14.7932 0.85664 14.6055 0.725482 14.3973 0.635849C14.1892 0.546216 13.9649 0.499991 13.7382 0.5H2.26153C2.0349 0.500047 1.81066 0.546314 1.60252 0.635973C1.39438 0.725631 1.20671 0.856797 1.05099 1.02145C0.895265 1.18611 0.774757 1.38079 0.696833 1.5936C0.618909 1.80642 0.585206 2.03289 0.597784 2.25917L1.2457 13.9258C1.26934 14.3512 1.45498 14.7514 1.76448 15.0441C2.07398 15.3369 2.48384 15.5 2.90987 15.5H13.0899ZM2.90987 14.6667H13.0899C13.3029 14.6667 13.5079 14.585 13.6627 14.4386C13.8175 14.2921 13.9102 14.0919 13.922 13.8792L14.5703 2.2125C14.5765 2.09938 14.5596 1.98617 14.5206 1.8798C14.4816 1.77343 14.4213 1.67613 14.3435 1.59384C14.2656 1.51156 14.1717 1.44601 14.0677 1.40122C13.9636 1.35643 13.8515 1.33333 13.7382 1.33333H2.26153C2.14824 1.33333 2.03613 1.35643 1.93207 1.40122C1.828 1.44601 1.73416 1.51156 1.65628 1.59384C1.5784 1.67613 1.51812 1.77343 1.47912 1.8798C1.44012 1.98617 1.42322 2.09938 1.42945 2.2125L2.07778 13.8792C2.0895 14.0919 2.18228 14.2921 2.33704 14.4386C2.4918 14.585 2.69679 14.6667 2.90987 14.6667Z" fill="#18A0FB"/>
</svg>
